ffmpeg started on 2016-11-27 at 01:08:56
Report written to "Output/NVENCh264/results/ffmpeg/sintelllhq1000k.log"
Command line:
Tools/ffmpeg/ffmpeg -benchmark -y -i Input/y4m/sintel.y4m -c:v h264_nvenc -preset llhq -b:v 1000k -an Output/NVENCh264/encoded/sintelllhq1000k.mkv
ffmpeg version N-82227-gdb23fde Copyright (c) 2000-2016 the FFmpeg developers
  built with gcc 5.4.0 (Ubuntu 5.4.0-6ubuntu1~16.04.2) 20160609
  configuration: --prefix=/home/jaroslav/ffmpeg_build --pkg-config-flags=--static --extra-cflags=-I/home/jaroslav/ffmpeg_build/include --extra-ldflags=-L/home/jaroslav/ffmpeg_build/lib --bindir=/home/jaroslav/bin --enable-gpl --enable-libass --enable-libfdk-aac --enable-libfreetype --enable-libmp3lame --enable-libopus --enable-libtheora --enable-libvorbis --enable-libvpx --enable-libx264 --enable-libx265 --enable-nvenc --enable-libmfx --enable-libxvid --enable-libgsm --enable-libopencore-amrnb --enable-version3 --enable-nonfree
  libavutil      55. 35.100 / 55. 35.100
  libavcodec     57. 66.101 / 57. 66.101
  libavformat    57. 57.100 / 57. 57.100
  libavdevice    57.  2.100 / 57.  2.100
  libavfilter     6. 66.100 /  6. 66.100
  libswscale      4.  3.100 /  4.  3.100
  libswresample   2.  4.100 /  2.  4.100
  libpostproc    54.  2.100 / 54.  2.100
Input #0, yuv4mpegpipe, from 'Input/y4m/sintel.y4m':
  Duration: 00:00:20.83, start: 0.000000, bitrate: 2057307 kb/s
    Stream #0:0: Video: rawvideo (I420 / 0x30323449), yuv420p(progressive), 4096x1744, SAR 1:1 DAR 256:109, 24 fps, 24 tbr, 24 tbn, 24 tbc
[h264_nvenc @ 0x39da1c0] The variable bitrate rate-control requires the 'qmin' and/or 'qmax' option set.
Output #0, matroska, to 'Output/NVENCh264/encoded/sintelllhq1000k.mkv':
  Metadata:
    encoder         : Lavf57.57.100
    Stream #0:0: Video: h264 (h264_nvenc) (Main) (H264 / 0x34363248), yuv420p, 4096x1744 [SAR 1:1 DAR 256:109], q=-1--1, 1000 kb/s, 24 fps, 1k tbn, 24 tbc
    Metadata:
      encoder         : Lavc57.66.101 h264_nvenc
    Side data:
      cpb: bitrate max/min/avg: 0/0/1000000 buffer size: 2000000 vbv_delay: -1
Stream mapping:
  Stream #0:0 -> #0:0 (rawvideo (native) -> h264 (h264_nvenc))
Press [q] to stop, [?] for help
frame=   20 fps=0.0 q=0.0 size=       0kB time=00:00:00.00 bitrate=N/A speed=   0x    frame=   41 fps= 41 q=49.0 size=       1kB time=00:00:00.41 bitrate=  14.3kbits/s speed=0.413x    frame=   62 fps= 41 q=49.0 size=       1kB time=00:00:01.29 bitrate=   4.6kbits/s speed=0.851x    frame=   83 fps= 41 q=49.0 size=       1kB time=00:00:02.16 bitrate=   2.7kbits/s speed=1.06x    frame=  104 fps= 41 q=49.0 size=       1kB time=00:00:03.04 bitrate=   2.0kbits/s speed=1.19x    frame=  125 fps= 41 q=49.0 size=       1kB time=00:00:03.91 bitrate=   1.5kbits/s speed=1.27x    frame=  146 fps= 41 q=49.0 size=    1285kB time=00:00:04.79 bitrate=2196.2kbits/s speed=1.34x    frame=  148 fps= 20 q=49.0 size=    1285kB time=00:00:04.87 bitrate=2158.8kbits/s speed=0.657x    frame=  149 fps= 14 q=49.0 size=    1285kB time=00:00:04.91 bitrate=2140.4kbits/s speed=0.46x    frame=  150 fps= 11 q=49.0 size=    1285kB time=00:00:04.95 bitrate=2122.7kbits/s speed=0.356x    frame=  154 fps= 11 q=49.0 size=    1285kB time=00:00:05.12 bitrate=2053.6kbits/s speed=0.355x    frame=  175 fps= 12 q=49.0 size=    1285kB time=00:00:06.00 bitrate=1754.1kbits/s speed=0.401x    frame=  196 fps= 13 q=49.0 size=    1285kB time=00:00:06.87 bitrate=1530.9kbits/s speed=0.444x    frame=  217 fps= 14 q=49.0 size=    1285kB time=00:00:07.75 bitrate=1358.1kbits/s speed=0.485x    frame=  238 fps= 14 q=49.0 size=    1285kB time=00:00:08.62 bitrate=1220.3kbits/s speed=0.523x    frame=  259 fps= 15 q=49.0 size=    1285kB time=00:00:09.50 bitrate=1107.9kbits/s speed=0.559x    frame=  280 fps= 16 q=49.0 size=    2530kB time=00:00:10.37 bitrate=1997.6kbits/s speed=0.592x    frame=  301 fps= 17 q=49.0 size=    2742kB time=00:00:11.25 bitrate=1996.4kbits/s speed=0.624x    frame=  322 fps= 17 q=49.0 size=    2742kB time=00:00:12.12 bitrate=1852.3kbits/s speed=0.654x    frame=  343 fps= 18 q=49.0 size=    2742kB time=00:00:13.00 bitrate=1727.7kbits/s speed=0.682x    frame=  364 fps= 19 q=49.0 size=    2742kB time=00:00:13.87 bitrate=1618.7kbits/s speed=0.709x    frame=  385 fps= 19 q=49.0 size=    2742kB time=00:00:14.75 bitrate=1522.7kbits/s speed=0.735x    frame=  406 fps= 20 q=49.0 size=    2742kB time=00:00:15.62 bitrate=1437.4kbits/s speed=0.759x    frame=  427 fps= 20 q=49.0 size=    3353kB time=00:00:16.50 bitrate=1664.4kbits/s speed=0.782x    frame=  448 fps= 21 q=49.0 size=    3353kB time=00:00:17.37 bitrate=1580.6kbits/s speed=0.804x    frame=  469 fps= 21 q=49.0 size=    3542kB time=00:00:18.25 bitrate=1590.0kbits/s speed=0.825x    frame=  478 fps= 21 q=49.0 size=    3542kB time=00:00:18.62 bitrate=1558.0kbits/s speed=0.823x    frame=  499 fps= 22 q=49.0 size=    3542kB time=00:00:19.50 bitrate=1488.1kbits/s speed=0.843x    frame=  500 fps= 22 q=49.0 Lsize=    3977kB time=00:00:20.79 bitrate=1567.0kbits/s speed=0.897x    
video:3973kB audio:0kB subtitle:0kB other streams:0kB global headers:0kB muxing overhead: 0.109673%
bench: utime=1.008s
bench: maxrss=1190024kB
